<?xml version="1.0" standalone="no"?>
<!DOCTYPE svg PUBLIC "-//W3C//DTD SVG 20010904//EN"
 "http://www.w3.org/TR/2001/REC-SVG-20010904/DTD/svg10.dtd">
<svg version="1.0" xmlns="http://www.w3.org/2000/svg"
 width="1000.000000pt" height="250.000000pt" viewBox="0 0 1000.000000 250.000000"
 preserveAspectRatio="xMidYMid meet">

<g transform="translate(0.000000,250.000000) scale(0.100000,-0.100000)"
fill="#ffffff" stroke="none">
<path d="M857 1962 c-235 -235 -427 -430 -427 -434 0 -4 43 -112 96 -240 53
-128 99 -239 101 -245 4 -10 46 -13 164 -13 l160 0 107 73 c139 95 137 94 129
74 -3 -9 -122 -180 -263 -379 -142 -200 -300 -424 -352 -498 -52 -74 -111
-157 -131 -185 -39 -54 -38 -54 69 20 41 29 127 87 190 130 544 371 1227 839
1236 849 8 8 -16 75 -91 256 l-102 245 -334 5 -334 5 185 52 184 52 331 331
330 330 -410 0 -410 0 -428 -428z"/>
</g>
</svg>
