<?xml version="1.0" standalone="no"?>
<!DOCTYPE svg PUBLIC "-//W3C//DTD SVG 20010904//EN"
 "http://www.w3.org/TR/2001/REC-SVG-20010904/DTD/svg10.dtd">
<svg version="1.0" xmlns="http://www.w3.org/2000/svg"
 width="227.000000pt" height="313.000000pt" viewBox="0 0 227.000000 313.000000"
 preserveAspectRatio="xMidYMid meet">

<g transform="translate(0.000000,313.000000) scale(0.100000,-0.100000)"
fill="#000000" stroke="none">
<path d="M592 2539 l-571 -571 16 -42 c9 -22 69 -169 133 -326 l117 -285 49
-7 c27 -3 123 -7 214 -7 l165 -1 155 106 c85 57 156 100 158 95 3 -9 -226
-339 -749 -1076 -148 -209 -269 -384 -269 -388 0 -4 28 11 63 35 253 171 1092
744 1562 1066 373 256 395 273 395 296 0 19 -79 220 -211 537 l-43 106 -225 6
c-123 4 -321 7 -440 7 -124 0 -210 4 -202 9 7 5 116 37 241 72 l229 63 438
438 438 438 -547 0 -546 0 -570 -571z"/>
</g>
</svg>
