<?xml version="1.0" standalone="no"?>
<!DOCTYPE svg PUBLIC "-//W3C//DTD SVG 20010904//EN"
 "http://www.w3.org/TR/2001/REC-SVG-20010904/DTD/svg10.dtd">
<svg version="1.0" xmlns="http://www.w3.org/2000/svg"
 width="1000.000000pt" height="250.000000pt" viewBox="0 0 1000.000000 250.000000"
 preserveAspectRatio="xMidYMid meet">

<g transform="translate(0.000000,250.000000) scale(0.100000,-0.100000)"
fill="#000000" stroke="none">
<path d="M857 1962 c-235 -235 -427 -430 -427 -434 0 -4 43 -112 96 -240 53
-128 99 -239 101 -245 4 -10 46 -13 164 -13 l160 0 107 73 c139 95 137 94 129
74 -3 -9 -122 -180 -263 -379 -142 -200 -300 -424 -352 -498 -52 -74 -111
-157 -131 -185 -39 -54 -38 -54 69 20 41 29 127 87 190 130 544 371 1227 839
1236 849 8 8 -16 75 -91 256 l-102 245 -334 5 -334 5 185 52 184 52 331 331
330 330 -410 0 -410 0 -428 -428z"/>
<path d="M2687 1926 c-106 -29 -171 -105 -172 -201 -1 -105 52 -166 190 -219
39 -15 83 -32 98 -38 58 -23 61 -88 3 -88 -36 0 -56 15 -56 42 0 16 -11 18
-121 18 l-121 0 7 -32 c28 -130 130 -198 296 -198 169 0 269 82 269 221 0 100
-58 158 -222 219 -95 35 -132 78 -93 110 20 16 54 3 67 -26 11 -23 14 -24 126
-24 l115 0 -6 41 c-18 138 -202 223 -380 175z"/>
<path d="M4040 1925 c-113 -32 -211 -122 -246 -227 -21 -62 -24 -174 -6 -235
31 -105 135 -209 241 -240 73 -21 199 -14 264 15 70 31 149 111 183 185 37 82
39 201 5 290 -32 82 -116 166 -196 196 -78 29 -174 35 -245 16z m178 -212 c60
-37 83 -156 44 -233 -45 -92 -195 -92 -244 0 -34 66 -19 180 30 224 40 35 121
40 170 9z"/>
<path d="M3130 1840 l0 -90 95 0 95 0 0 -270 0 -270 110 0 110 0 0 270 0 270
95 0 95 0 0 90 0 90 -300 0 -300 0 0 -90z"/>
<path d="M4590 1571 l0 -361 110 0 110 0 0 121 c0 85 3 120 11 117 7 -2 39
-56 73 -121 l61 -117 118 0 c64 0 117 2 117 5 0 2 -34 64 -74 137 l-75 132 49
28 c69 39 104 101 104 182 -1 100 -44 164 -139 208 -46 20 -68 23 -257 26
l-208 4 0 -361z m364 153 c19 -18 21 -75 4 -92 -7 -7 -40 -12 -80 -12 l-68 0
0 60 0 60 64 0 c45 0 69 -5 80 -16z"/>
<path d="M5270 1570 l0 -360 110 0 110 0 0 159 c0 158 9 202 29 139 5 -18 28
-93 51 -165 l41 -133 93 0 92 0 49 158 c26 86 52 164 56 172 5 8 9 -60 9 -157
l0 -173 110 0 110 0 0 360 0 360 -134 0 -133 0 -33 -92 c-67 -194 -123 -339
-127 -334 -3 3 -40 99 -82 213 l-76 208 -138 3 -137 3 0 -361z"/>
<path d="M6270 1559 l0 -351 178 4 c157 3 181 6 217 25 57 30 92 71 106 124
11 40 10 53 -5 90 -21 55 -43 82 -85 103 l-32 17 41 30 c105 77 90 221 -29
282 -53 26 -59 27 -223 27 l-168 0 0 -351z m329 246 c55 -28 66 -119 20 -161
-17 -16 -40 -20 -130 -22 l-109 -4 0 101 0 101 95 0 c64 0 105 -5 124 -15z
m18 -301 c15 -12 34 -39 42 -60 12 -35 12 -44 -3 -76 -24 -51 -72 -68 -186
-68 l-90 0 0 116 0 116 105 -4 c86 -3 109 -7 132 -24z"/>
<path d="M6910 1560 l0 -350 55 0 55 0 0 140 0 140 48 0 48 0 79 -140 80 -140
64 0 c76 0 78 -11 -24 155 -41 67 -75 127 -75 132 0 6 11 14 25 17 31 8 92 61
109 95 53 104 9 227 -98 277 -47 22 -64 24 -208 24 l-158 0 0 -350z m319 245
c37 -19 55 -64 48 -121 -9 -79 -52 -104 -184 -104 l-73 0 0 120 0 120 90 0
c60 0 101 -5 119 -15z"/>
<path d="M7751 1888 c-47 -127 -241 -669 -241 -675 0 -2 25 -3 56 -1 l56 3 27
70 27 70 149 0 150 0 25 -72 25 -73 58 0 c52 0 58 2 52 18 -12 32 -197 547
-219 612 l-23 65 -66 3 c-62 3 -68 1 -76 -20z m114 -213 c65 -189 75 -220 75
-225 0 -3 -52 -4 -115 -2 -63 2 -115 7 -115 11 0 5 6 24 14 42 8 19 14 36 14
39 1 3 3 12 6 20 3 8 19 53 36 100 17 47 33 91 36 99 8 22 19 3 49 -84z"/>
<path d="M8260 1560 l0 -350 55 0 55 0 2 263 3 262 174 -262 174 -263 54 0 53
0 0 350 0 350 -55 0 -55 0 -2 -257 -3 -258 -170 257 -170 257 -57 1 -58 0 0
-350z"/>
<path d="M8990 1561 l0 -351 129 0 c200 0 302 29 376 107 100 104 122 272 55
410 -35 71 -82 116 -160 152 -51 24 -67 26 -227 29 l-173 4 0 -351z m355 237
c80 -43 117 -105 123 -211 6 -95 -10 -154 -54 -205 -46 -54 -99 -74 -216 -80
l-98 -5 0 263 0 262 108 -4 c73 -3 117 -9 137 -20z"/>
<path d="M2500 900 c0 -5 14 -10 30 -10 l30 0 0 -100 c0 -82 3 -100 15 -100
12 0 15 18 15 100 l0 100 30 0 c17 0 30 5 30 10 0 6 -32 10 -75 10 -43 0 -75
-4 -75 -10z"/>
<path d="M2873 823 c-46 -128 -47 -133 -30 -133 8 0 18 11 21 25 6 22 11 25
56 25 44 0 52 -3 62 -25 6 -14 17 -25 24 -25 9 0 2 32 -25 108 -51 142 -64
145 -108 25z m81 -40 c7 -21 4 -23 -28 -23 -41 0 -44 9 -20 66 l17 39 12 -30
c7 -16 16 -40 19 -52z"/>
<path d="M3255 898 c-36 -19 -55 -52 -55 -93 0 -103 119 -151 184 -74 14 17
26 41 26 55 0 22 -3 24 -55 24 -30 0 -55 -4 -55 -10 0 -5 18 -10 40 -10 29 0
40 -4 40 -15 0 -27 -38 -55 -75 -55 -49 0 -75 29 -75 83 0 49 17 71 63 83 21
5 36 1 57 -15 50 -37 72 -20 24 18 -29 23 -86 27 -119 9z"/>
<path d="M3610 800 l0 -110 50 0 c38 0 50 4 50 15 0 10 -11 15 -35 15 l-35 0
0 95 c0 78 -3 95 -15 95 -12 0 -15 -19 -15 -110z"/>
<path d="M3900 800 c0 -91 3 -110 15 -110 12 0 15 19 15 110 0 91 -3 110 -15
110 -12 0 -15 -19 -15 -110z"/>
<path d="M4130 800 c0 -90 3 -110 15 -110 11 0 15 19 17 88 l3 87 55 -87 c30
-49 61 -88 68 -88 9 0 12 29 12 110 0 67 -4 110 -10 110 -6 0 -10 -33 -10 -80
0 -44 -4 -80 -9 -80 -5 0 -32 36 -61 80 -29 44 -59 80 -66 80 -11 0 -14 -23
-14 -110z"/>
<path d="M4500 800 l0 -110 55 0 c42 0 55 3 55 15 0 11 -11 15 -40 15 -39 0
-40 1 -40 35 0 33 2 35 35 35 24 0 35 5 35 15 0 10 -11 15 -35 15 -33 0 -35 2
-35 35 0 34 1 35 40 35 22 0 40 5 40 10 0 6 -25 10 -55 10 l-55 0 0 -110z"/>
<path d="M5094 900 c-49 -20 -71 -111 -38 -158 24 -34 71 -55 110 -48 39 8 84
57 84 92 0 22 -3 24 -55 24 -30 0 -55 -4 -55 -10 0 -5 18 -10 40 -10 46 0 53
-17 20 -50 -27 -27 -83 -27 -110 2 -26 28 -28 98 -2 121 31 28 71 32 102 8 50
-37 72 -20 24 18 -28 22 -81 27 -120 11z"/>
<path d="M5485 898 c-86 -47 -66 -186 30 -204 63 -11 135 47 135 111 0 25 -27
72 -52 89 -26 18 -84 20 -113 4z m118 -40 c12 -16 16 -34 13 -61 -6 -53 -30
-77 -78 -77 -53 0 -78 27 -78 84 0 37 5 48 27 66 35 27 89 21 116 -12z"/>
<path d="M5840 800 l0 -110 55 0 c42 0 55 3 55 15 0 11 -11 15 -40 15 -39 0
-40 1 -40 35 0 33 2 35 35 35 24 0 35 5 35 15 0 10 -11 15 -35 15 -33 0 -35 2
-35 35 0 34 1 35 40 35 22 0 40 5 40 10 0 6 -25 10 -55 10 l-55 0 0 -110z"/>
<path d="M6168 898 c-23 -19 -30 -51 -15 -71 7 -10 30 -24 52 -31 44 -16 61
-35 52 -60 -8 -21 -63 -21 -75 0 -5 9 -18 14 -28 12 -17 -3 -17 -6 8 -31 15
-15 38 -27 51 -27 34 0 77 37 77 65 0 27 -15 41 -65 58 -48 17 -64 39 -46 61
17 21 50 20 72 0 28 -25 47 -12 21 14 -25 25 -79 30 -104 10z"/>
<path d="M6720 800 c0 -91 3 -110 15 -110 11 0 15 12 15 50 l0 50 55 0 55 0 0
-50 c0 -38 4 -50 15 -50 12 0 15 19 15 110 0 91 -3 110 -15 110 -11 0 -15 -12
-15 -50 l0 -50 -55 0 -55 0 0 50 c0 38 -4 50 -15 50 -12 0 -15 -19 -15 -110z"/>
<path d="M7100 800 l0 -110 55 0 c42 0 55 3 55 15 0 11 -11 15 -40 15 -39 0
-40 1 -40 35 0 33 2 35 35 35 24 0 35 5 35 15 0 10 -11 15 -35 15 -33 0 -35 2
-35 35 0 34 1 35 40 35 22 0 40 5 40 10 0 6 -25 10 -55 10 l-55 0 0 -110z"/>
<path d="M7410 800 c0 -91 3 -110 15 -110 11 0 15 12 15 45 0 36 3 45 18 45
10 0 27 -18 42 -45 15 -27 32 -45 42 -45 16 0 16 4 -7 40 -14 22 -25 42 -25
44 0 3 11 16 25 30 31 31 32 50 0 81 -19 20 -34 25 -75 25 l-50 0 0 -110z m94
77 c11 -8 17 -23 14 -38 -2 -20 -9 -25 -40 -27 l-38 -3 0 40 c0 36 3 41 23 41
13 0 31 -6 41 -13z"/>
<path d="M7760 800 l0 -110 55 0 c42 0 55 3 55 15 0 11 -11 15 -40 15 -39 0
-40 1 -40 35 0 33 2 35 35 35 24 0 35 5 35 15 0 10 -11 15 -35 15 -33 0 -35 2
-35 35 0 34 1 35 40 35 22 0 40 5 40 10 0 6 -25 10 -55 10 l-55 0 0 -110z"/>
</g>
</svg>
